<svg xmlns="http://www.w3.org/2000/svg" width="20" height="15" viewBox="0 0 20 15">
  <path id="ic_format_list_bulleted_24px" d="M4.122,10.5A1.562,1.562,0,0,0,2.5,12a1.562,1.562,0,0,0,1.622,1.5A1.562,1.562,0,0,0,5.743,12,1.562,1.562,0,0,0,4.122,10.5Zm0-6A1.562,1.562,0,0,0,2.5,6,1.562,1.562,0,0,0,4.122,7.5,1.562,1.562,0,0,0,5.743,6,1.562,1.562,0,0,0,4.122,4.5Zm0,12a1.5,1.5,0,1,0,0,3,1.5,1.5,0,1,0,0-3ZM7.365,19H22.5V17H7.365Zm0-6H22.5V11H7.365Zm0-8V7H22.5V5Z" transform="translate(-2.5 -4.5)" fill="#8e8e8e"/>
</svg>
