<svg xmlns="http://www.w3.org/2000/svg" width="17.906" height="17.906" viewBox="0 0 17.906 17.906">
  <path id="ic_contacts_24px" d="M18.115,0H3.791V1.492H18.115ZM3.791,17.906H18.115V16.413H3.791ZM18.115,2.984H3.791A1.667,1.667,0,0,0,2,4.476v8.953a1.667,1.667,0,0,0,1.791,1.492H18.115a1.667,1.667,0,0,0,1.791-1.492V4.476A1.667,1.667,0,0,0,18.115,2.984ZM10.953,5.036a1.873,1.873,0,0,1,2.014,1.679,1.873,1.873,0,0,1-2.014,1.679A1.873,1.873,0,0,1,8.938,6.715,1.873,1.873,0,0,1,10.953,5.036Zm4.476,7.647H6.476V11.564c0-1.246,2.981-1.865,4.476-1.865s4.476.619,4.476,1.865Z" transform="translate(-2)" fill="#8e8e8e"/>
</svg>
