<svg xmlns="http://www.w3.org/2000/svg" width="17.906" height="17.906" viewBox="0 0 17.906 17.906">
  <g id="Search" transform="translate(0 0)">
    <rect id="Rectangle_693" data-name="Rectangle 693" width="7.162" height="7.162" transform="translate(0 2.213)" fill="none"/>
    <path id="Path_208" data-name="Path 208" d="M17.906,16.329l-3.716-3.716a7.71,7.71,0,0,0,1.577-4.73A7.834,7.834,0,0,0,7.883,0,7.834,7.834,0,0,0,0,7.883a7.834,7.834,0,0,0,7.883,7.883,7.71,7.71,0,0,0,4.73-1.577l3.716,3.716ZM2.252,7.883A5.576,5.576,0,0,1,7.883,2.252a5.576,5.576,0,0,1,5.631,5.631,5.576,5.576,0,0,1-5.631,5.631A5.576,5.576,0,0,1,2.252,7.883Z" fill="#8e8e8e"/>
  </g>
</svg>
