<svg xmlns="http://www.w3.org/2000/svg" width="17.906" height="17.906" viewBox="0 0 17.906 17.906">
  <path id="ic_shopping_cart_24px" d="M6.372,16.324a1.791,1.791,0,1,0,1.791,1.791A1.788,1.788,0,0,0,6.372,16.324ZM1,2V3.791H2.791l3.223,6.8L4.8,12.779a1.731,1.731,0,0,0-.224.859,1.8,1.8,0,0,0,1.791,1.791H17.115V13.639H6.748a.222.222,0,0,1-.224-.224l.027-.107.806-1.459h6.67a1.782,1.782,0,0,0,1.567-.922L18.8,5.116a.875.875,0,0,0,.107-.43.9.9,0,0,0-.9-.9H4.769L3.928,2H1ZM15.324,16.324a1.791,1.791,0,1,0,1.791,1.791A1.788,1.788,0,0,0,15.324,16.324Z" transform="translate(-1 -2)" fill="#8e8e8e"/>
</svg>
